<svg width="72" height="72" viewBox="0 0 72 72" fill="none" xmlns="http://www.w3.org/2000/svg">
<path fill-rule="evenodd" clip-rule="evenodd" d="M38.4119 5.3223C38.6737 5.44642 38.8406 5.71025 38.8406 6.00001V66C38.8406 66.2898 38.6737 66.5536 38.4119 66.6777C38.1501 66.8018 37.8402 66.764 37.6159 66.5806L25.5916 56.7479C25.4174 56.6054 25.3164 56.3923 25.3164 56.1673V15.8327C25.3164 15.6077 25.4174 15.3946 25.5916 15.2521L37.6159 5.41942C37.8402 5.23599 38.1501 5.19818 38.4119 5.3223ZM26.8164 16.1883V55.8118L37.3406 64.4179V7.58215L26.8164 16.1883Z" fill="#003A9F"/>
<path fill-rule="evenodd" clip-rule="evenodd" d="M48.8688 13.8447C47.0999 14.2214 45.7 15.6507 44.5624 16.9401C44.2883 17.2507 43.8144 17.2803 43.5038 17.0062C43.1932 16.7322 43.1636 16.2582 43.4376 15.9477C44.5508 14.686 46.2454 12.8698 48.5564 12.3776C50.9659 11.8645 53.7523 12.8271 56.9422 16.4098C58.3939 18.0402 59.8806 18.8185 61.2755 19.1088C62.6804 19.4011 64.0518 19.2103 65.2782 18.8049C66.5061 18.399 67.5637 17.7859 68.3191 17.2681C68.6952 17.0104 68.992 16.7792 69.193 16.6142C69.2933 16.5318 69.3695 16.4662 69.4193 16.4223C69.4442 16.4003 69.4625 16.3839 69.4739 16.3735L69.4858 16.3625L69.4872 16.3612C69.7895 16.0784 70.2643 16.0936 70.5473 16.3958C70.8305 16.6981 70.8151 17.1727 70.5128 17.4559L70 16.9086C70.5128 17.4559 70.5131 17.4556 70.5128 17.4559L70.5095 17.459L70.5034 17.4646L70.4832 17.4831C70.4661 17.4987 70.4419 17.5204 70.4109 17.5477C70.349 17.6023 70.2596 17.6793 70.1448 17.7735C69.9155 17.9618 69.584 18.2197 69.1672 18.5054C68.3369 19.0744 67.1514 19.7655 65.749 20.2291C64.345 20.6932 62.699 20.9371 60.9699 20.5773C59.2309 20.2155 57.467 19.2549 55.8219 17.4073C52.8185 14.0341 50.5393 13.489 48.8688 13.8447Z" fill="#003A9F"/>
<path fill-rule="evenodd" clip-rule="evenodd" d="M48.8688 52.8447C47.0998 53.2214 45.7 54.6507 44.5624 55.9401C44.2883 56.2507 43.8144 56.2803 43.5038 56.0062C43.1932 55.7322 43.1636 55.2582 43.4376 54.9477C44.5508 53.686 46.2454 51.8698 48.5564 51.3776C50.9659 50.8645 53.7523 51.8271 56.9422 55.4098C58.3939 57.0402 59.8806 57.8185 61.2755 58.1088C62.6804 58.4011 64.0518 58.2103 65.2782 57.8049C66.5061 57.399 67.5637 56.7859 68.3191 56.2681C68.6952 56.0104 68.992 55.7792 69.193 55.6142C69.2933 55.5318 69.3695 55.4662 69.4193 55.4223C69.4442 55.4003 69.4625 55.3839 69.4739 55.3735L69.4858 55.3625L69.4872 55.3612C69.7895 55.0784 70.2643 55.0936 70.5473 55.3958C70.8305 55.6981 70.8151 56.1727 70.5128 56.4559L70.0129 55.9223C70.5128 56.4559 70.5131 56.4556 70.5128 56.4559L70.5115 56.4571L70.5095 56.459L70.5034 56.4646L70.4832 56.4831C70.4661 56.4987 70.4419 56.5204 70.4109 56.5477C70.349 56.6023 70.2596 56.6793 70.1448 56.7735C69.9155 56.9618 69.584 57.2197 69.1672 57.5054C68.3369 58.0745 67.1514 58.7655 65.749 59.2291C64.345 59.6932 62.699 59.9371 60.9699 59.5773C59.2309 59.2155 57.467 58.2549 55.8219 56.4073C52.8185 53.0341 50.5393 52.489 48.8688 52.8447Z" fill="#003A9F"/>
<path fill-rule="evenodd" clip-rule="evenodd" d="M45.9763 32.8228C44.5727 33.1132 43.4531 34.2169 42.5218 35.2414C42.2431 35.5478 41.7688 35.5704 41.4623 35.2918C41.1558 35.0132 41.1332 34.5388 41.4118 34.2323C42.323 33.2301 43.7366 31.7544 45.6724 31.3539C47.6998 30.9345 50.0223 31.7286 52.653 34.5985C53.8209 35.8726 55.0127 36.4767 56.1278 36.702C57.2529 36.9293 58.3545 36.7815 59.3443 36.4639C60.3355 36.1459 61.1906 35.665 61.8022 35.2581C62.1065 35.0558 62.3464 34.8744 62.5083 34.7455C62.5892 34.681 62.6503 34.6299 62.6899 34.596C62.7097 34.5791 62.7241 34.5665 62.7329 34.5587L62.7419 34.5507L62.7427 34.55C63.0492 34.2718 63.5233 34.2945 63.8018 34.6008C64.0804 34.9073 64.0578 35.3817 63.7513 35.6603L63.2468 35.1053C63.7513 35.6603 63.7516 35.66 63.7513 35.6603L63.75 35.6614L63.7482 35.6631L63.7429 35.6679L63.7255 35.6833C63.711 35.6961 63.6907 35.7139 63.6647 35.7361C63.6128 35.7805 63.5383 35.8427 63.443 35.9186C63.2526 36.0703 62.9779 36.2776 62.633 36.5071C61.9463 36.9639 60.9648 37.5193 59.8026 37.8922C58.6391 38.2655 57.2707 38.4632 55.8308 38.1723C54.3809 37.8794 52.9127 37.1017 51.5473 35.6121C49.1114 32.9548 47.2883 32.5514 45.9763 32.8228Z" fill="#003A9F"/>
<path d="M30.2057 25.9321C30.7627 25.9321 31.2142 25.4806 31.2142 24.9236C31.2142 24.3667 30.7627 23.9152 30.2057 23.9152C29.6488 23.9152 29.1973 24.3667 29.1973 24.9236C29.1973 25.4806 29.6488 25.9321 30.2057 25.9321Z" fill="#003A9F"/>
<path d="M32.2233 35.0618C32.7803 35.0618 33.2318 34.6103 33.2318 34.0533C33.2318 33.4963 32.7803 33.0448 32.2233 33.0448C31.6664 33.0448 31.2148 33.4963 31.2148 34.0533C31.2148 34.6103 31.6664 35.0618 32.2233 35.0618Z" fill="#003A9F"/>
<path d="M33.0866 47.9344C33.6436 47.9344 34.0951 47.4829 34.0951 46.926C34.0951 46.369 33.6436 45.9175 33.0866 45.9175C32.5296 45.9175 32.0781 46.369 32.0781 46.926C32.0781 47.4829 32.5296 47.9344 33.0866 47.9344Z" fill="#003A9F"/>
<path d="M21.4069 40.9722C21.9639 40.9722 22.4154 40.5207 22.4154 39.9637C22.4154 39.4067 21.9639 38.9552 21.4069 38.9552C20.85 38.9552 20.3984 39.4067 20.3984 39.9637C20.3984 40.5207 20.85 40.9722 21.4069 40.9722Z" fill="#003A9F"/>
<path d="M21.8229 28.5649C22.3799 28.5649 22.8314 28.1134 22.8314 27.5565C22.8314 26.9995 22.3799 26.548 21.8229 26.548C21.266 26.548 20.8145 26.9995 20.8145 27.5565C20.8145 28.1134 21.266 28.5649 21.8229 28.5649Z" fill="#003A9F"/>
<path d="M16.0085 36.017C16.5655 36.017 17.017 35.5655 17.017 35.0085C17.017 34.4515 16.5655 34 16.0085 34C15.4515 34 15 34.4515 15 35.0085C15 35.5655 15.4515 36.017 16.0085 36.017Z" fill="#003A9F"/>
<path d="M7.74677 31.1587C8.30374 31.1587 8.75525 30.7072 8.75525 30.1502C8.75525 29.5932 8.30374 29.1417 7.74677 29.1417C7.1898 29.1417 6.73828 29.5932 6.73828 30.1502C6.73828 30.7072 7.1898 31.1587 7.74677 31.1587Z" fill="#003A9F"/>
<path d="M5.00849 51.2605C5.56546 51.2605 6.01697 50.809 6.01697 50.252C6.01697 49.695 5.56546 49.2435 5.00849 49.2435C4.45151 49.2435 4 49.695 4 50.252C4 50.809 4.45151 51.2605 5.00849 51.2605Z" fill="#003A9F"/>
<path d="M5.32294 24.017C5.87991 24.017 6.33142 23.5655 6.33142 23.0085C6.33142 22.4515 5.87991 22 5.32294 22C4.76597 22 4.31445 22.4515 4.31445 23.0085C4.31445 23.5655 4.76597 24.017 5.32294 24.017Z" fill="#003A9F"/>
<path d="M17.0085 48.017C17.5655 48.017 18.017 47.5655 18.017 47.0085C18.017 46.4515 17.5655 46 17.0085 46C16.4515 46 16 46.4515 16 47.0085C16 47.5655 16.4515 48.017 17.0085 48.017Z" fill="#003A9F"/>
<path fill-rule="evenodd" clip-rule="evenodd" d="M14.2342 12.7501C12.1179 12.7501 10.4023 14.4657 10.4023 16.5819C10.4023 18.6982 12.1179 20.4138 14.2342 20.4138C16.3504 20.4138 18.066 18.6982 18.066 16.5819C18.066 14.4657 16.3504 12.7501 14.2342 12.7501ZM8.90234 16.5819C8.90234 13.6373 11.2895 11.2501 14.2342 11.2501C17.1788 11.2501 19.566 13.6373 19.566 16.5819C19.566 19.5266 17.1788 21.9138 14.2342 21.9138C11.2895 21.9138 8.90234 19.5266 8.90234 16.5819Z" fill="#003A9F"/>
<path fill-rule="evenodd" clip-rule="evenodd" d="M5.68485 35.4506C4.06398 35.4506 2.75 36.7645 2.75 38.3854C2.75 40.0063 4.06398 41.3203 5.68485 41.3203C7.30572 41.3203 8.6197 40.0063 8.6197 38.3854C8.6197 36.7645 7.30572 35.4506 5.68485 35.4506ZM1.25 38.3854C1.25 35.9361 3.23555 33.9506 5.68485 33.9506C8.13415 33.9506 10.1197 35.9361 10.1197 38.3854C10.1197 40.8347 8.13415 42.8203 5.68485 42.8203C3.23555 42.8203 1.25 40.8347 1.25 38.3854Z" fill="#003A9F"/>
<path fill-rule="evenodd" clip-rule="evenodd" d="M12.1067 51.824C10.4859 51.824 9.17188 53.138 9.17188 54.7588C9.17188 56.3797 10.4859 57.6937 12.1067 57.6937C13.7276 57.6937 15.0416 56.3797 15.0416 54.7588C15.0416 53.138 13.7276 51.824 12.1067 51.824ZM7.67188 54.7588C7.67188 52.3095 9.65742 50.324 12.1067 50.324C14.556 50.324 16.5416 52.3095 16.5416 54.7588C16.5416 57.2081 14.556 59.1937 12.1067 59.1937C9.65742 59.1937 7.67188 57.2081 7.67188 54.7588Z" fill="#003A9F"/>
</svg>
