<svg width="72" height="72" viewBox="0 0 72 72" fill="none" xmlns="http://www.w3.org/2000/svg">
<path fill-rule="evenodd" clip-rule="evenodd" d="M61.598 41.1769C61.7086 41.5761 61.4747 41.9893 61.0756 42.1L52.2749 44.5396L54.6939 53.4265C54.8027 53.8262 54.5669 54.2384 54.1672 54.3472C53.7675 54.456 53.3553 54.2201 53.2465 53.8205L50.6315 44.2132C50.5231 43.8148 50.757 43.4038 51.1549 43.2935L60.6749 40.6545C61.074 40.5439 61.4873 40.7777 61.598 41.1769Z" fill="#003A9F"/>
<path fill-rule="evenodd" clip-rule="evenodd" d="M17.7082 15.9795C18.1079 15.8707 18.5201 16.1065 18.6289 16.5062L21.2439 26.1134C21.3523 26.5118 21.1184 26.9229 20.7205 27.0332L11.2005 29.6721C10.8014 29.7828 10.3881 29.5489 10.2774 29.1497C10.1668 28.7506 10.4007 28.3373 10.7998 28.2266L19.6005 25.7871L17.1815 16.9001C17.0727 16.5005 17.3085 16.0883 17.7082 15.9795Z" fill="#003A9F"/>
<path fill-rule="evenodd" clip-rule="evenodd" d="M11.0296 20.8608C11.2359 20.5016 11.6943 20.3776 12.0535 20.5839L61.1235 48.7598C61.4827 48.9661 61.6067 49.4245 61.4004 49.7837C61.1942 50.1429 60.7358 50.2669 60.3766 50.0606L11.3066 21.8847C10.9473 21.6785 10.8234 21.2201 11.0296 20.8608Z" fill="#003A9F"/>
<path fill-rule="evenodd" clip-rule="evenodd" d="M35.8922 52.3134C36.0923 52.314 36.2839 52.3945 36.4243 52.537L43.3843 59.6012C43.675 59.8963 43.6715 60.3711 43.3764 60.6618C43.0814 60.9526 42.6065 60.949 42.3158 60.654L35.887 54.1289L29.4213 60.6166C29.1289 60.91 28.654 60.9108 28.3606 60.6185C28.0672 60.3261 28.0664 59.8512 28.3588 59.5578L35.3588 52.534C35.5001 52.3923 35.6921 52.3129 35.8922 52.3134Z" fill="#003A9F"/>
<path fill-rule="evenodd" clip-rule="evenodd" d="M28.4936 9.66498C28.7886 9.37416 29.2634 9.37752 29.5542 9.67248L35.9878 16.1977L42.4538 9.70513C42.746 9.41163 43.2209 9.41066 43.5144 9.70295C43.8079 9.99524 43.8089 10.4701 43.5166 10.7636L36.5166 17.7924C36.3754 17.9342 36.1834 18.0137 35.9833 18.0132C35.7832 18.0127 35.5916 17.9323 35.4511 17.7898L28.4861 10.7256C28.1953 10.4307 28.1986 9.9558 28.4936 9.66498Z" fill="#003A9F"/>
<path fill-rule="evenodd" clip-rule="evenodd" d="M36.0118 6.25C36.426 6.25109 36.7609 6.58776 36.7598 7.00197L36.6098 63.9745C36.6087 64.3887 36.2721 64.7236 35.8579 64.7225C35.4437 64.7214 35.1088 64.3847 35.1098 63.9705L35.2598 6.99803C35.2609 6.58381 35.5976 6.24891 36.0118 6.25Z" fill="#003A9F"/>
<path fill-rule="evenodd" clip-rule="evenodd" d="M10.5992 41.6728C10.7035 41.2719 11.113 41.0315 11.5139 41.1358L21.0739 43.6234C21.4735 43.7274 21.7139 44.1349 21.6117 44.5349L19.1467 54.1826C19.0441 54.5839 18.6357 54.8261 18.2343 54.7236C17.833 54.621 17.5908 54.2126 17.6933 53.8112L19.9735 44.8871L11.1361 42.5875C10.7353 42.4832 10.4949 42.0737 10.5992 41.6728Z" fill="#003A9F"/>
<path fill-rule="evenodd" clip-rule="evenodd" d="M54.0904 15.7898C54.4917 15.8923 54.734 16.3008 54.6314 16.7021L52.3513 25.6263L61.1886 27.9258C61.5895 28.0302 61.8299 28.4397 61.7256 28.8405C61.6213 29.2414 61.2118 29.4818 60.8109 29.3775L51.2509 26.8899C50.8513 26.7859 50.6109 26.3785 50.7131 25.9784L53.1781 16.3308C53.2806 15.9295 53.6891 15.6873 54.0904 15.7898Z" fill="#003A9F"/>
<path fill-rule="evenodd" clip-rule="evenodd" d="M60.8445 20.5681C61.0563 20.9241 60.9395 21.3844 60.5836 21.5962L11.9586 50.5391C11.6027 50.751 11.1424 50.6342 10.9305 50.2783C10.7187 49.9223 10.8355 49.462 11.1914 49.2502L59.8164 20.3073C60.1723 20.0954 60.6326 20.2122 60.8445 20.5681Z" fill="#003A9F"/>
</svg>
