<svg width="72" height="72" viewBox="0 0 72 72" fill="none" xmlns="http://www.w3.org/2000/svg">
<path d="M6 29.9476L15.5623 27.3115L12.9379 17.7012M30.5893 36.1239L6.68355 22.2362M23.9733 61.0864L31.0017 54.0618M24.1042 11.1967L31.0974 18.2618M30.9768 64.9699L31.1276 8M6.32658 42.8607L15.9291 45.3504L13.4505 54.9961M6.57794 50.8903L31.0518 36.3916M38.2465 22.5998C45.8783 22.5998 52.0671 28.8164 52.0671 36.4825C52.0671 44.1485 45.8783 50.3702 38.2465 50.3702M66.9838 36.9875H52.56M58.5726 16.07L51.8156 22.8523M38.2465 8.11112V17.7063M38.2465 55.3748V64.97M58.5726 57.0262L51.8156 50.2439" stroke="#003A9F" stroke-width="1.5" stroke-miterlimit="10" stroke-linecap="round" stroke-linejoin="round"/>
</svg>
